#N canvas 66 25 1211 734 12;
#X floatatom 260 113 5 0 0 0 - - - 0;
#X obj 210 117 tgl 15 0 empty empty empty 17 7 0 10 #fcfcfc #000000
#000000 0 1;
#X obj 187 47 loadbang;
#X obj 212 192 bng 15 250 50 0 empty empty empty 17 7 0 10 #fcfcfc
#000000 #000000;
#X obj 213 151 metro;
#X obj 162 240 int 1;
#X obj 221 241 + 1;
#X floatatom 185 282 5 0 0 0 - - - 0;
#X obj 191 356 + 1;
#X floatatom 194 389 5 0 0 0 - - - 0;
#X text 282 388 makes the metronome count by 4;
#X text 321 117 change tempo in number box;
#X text 323 241 counts up by 1;
#X text 325 279 total of count;
#X obj 581 1167 osc~;
#X msg 440 1104 0;
#X msg 337 966 62;
#X msg 251 966 60;
#X msg 424 966 64;
#X msg 467 966 65;
#X msg 553 966 67;
#X msg 644 966 69;
#X msg 724 966 71;
#X obj 585 1105 mtof;
#X floatatom 584 1134 5 0 0 0 - - - 0;
#X msg 295 934 61;
#X msg 383 933 63;
#X msg 508 934 66;
#X msg 596 932 68;
#X msg 686 930 70;
#X msg 767 966 72;
#X msg 815 930 73;
#X msg 859 966 74;
#X msg 902 933 75;
#X msg 947 965 76;
#X msg 989 965 77;
#X text 994 941 f;
#X msg 1030 930 78;
#X msg 1072 964 79;
#X text 1077 940 g;
#X msg 1118 932 80;
#X text 432 938 E;
#X text 732 931 B;
#X text 473 940 F;
#X text 561 939 G;
#X text 651 940 A;
#X text 951 927 e;
#X text 866 942 D;
#X text 773 941 C;
#X obj 185 426 select 1 2 3 4 5 6 7 8 9 10 11 12;
#X obj 485 424 select 13 14 15 16 17 18 19 20 21 22 23 24;
#X obj 200 474 select 25 26 27 28 29 30 31 32 33 34 35 36;
#X obj 554 470 select 37 38 39 40 41 42 43 44 45 46 47 48;
#X text 330 71 default tempo 500 ms;
#X msg 208 966 59;
#X text 215 940 B;
#X msg 168 939 58;
#X text 136 944 A;
#X msg 132 966 57;
#X text 940 147 songs about _ rainbows \, and;
#X text 930 122 C D G _ G A \, A;
#X text 945 195 what's on the _ o-o-ther;
#X text 930 73 B D G _ A B-B;
#X text 941 96 Why are there _ so ma-ny;
#X text 926 274 B-D G _ A-B \, B;
#X text 923 321 C-D G _ G-A \, A;
#X text 949 348 on-ly il _ lu-sions \, and;
#X text 947 405 rain-bows have _ no-thing to;
#X text 921 378 B D #F _ G-G-D;
#X text 511 908 F#;
#X text 930 170 B D F# _ G-G-D;
#X text 921 479 E B E _ B E B;
#X text 921 525 E B E _ B E x;
#X text 924 428 E-E-E _ E-E x;
#X text 927 221 E-E-E _ E-E x;
#X text 946 248 si-i-i _ i-ide?;
#X obj 224 518 select 49 50 51 52 53 54 55 56 57 58 59 60;
#X obj 583 516 select 61 62 63 64 65 66 67 68 69 70 71 72;
#X text 343 939 D;
#X text 385 906 D#;
#X text 598 897 G#;
#X text 688 904 A#;
#X text 817 905 C#;
#X text 903 903 D#;
#X text 1032 907 F#;
#X text 1120 908 G#;
#X text 920 627 F#-F#-F# _ F#-F# x;
#X text 921 575 F# F# F# _ A F# D;
#X obj 253 563 select 73 74 75 76 77 78 79 80 81 82 83 84;
#X text 924 788 B C-E _ D B-B;
#X text 944 812 the lov-ers _ the dream-ers;
#X text 926 837 A G-G _ G-G x;
#X text 949 864 and me-e _ e-e;
#X obj 599 564 select 85 86 87 88 89 90 91 92 93 94 95 96;
#X text 258 938 C;
#X text 171 915 A#;
#X text 297 907 C#;
#X obj 187 318 % 96;
#X text 920 684 C-E G _ F# G \, D;
#X text 128 444 Why are there so many songs about rainbows \, and;
#X text 574 443 what's on the other side?;
#X text 949 297 Rain-bows are _ vi-sions \, but;
#X text 947 455 hi-i-i _ i-ide.;
#X text 944 504 So we've been _ told and some;
#X text 180 493 Rainbows are visions \, but only illusions \, and;
#X text 622 489 rainbows have nothing to hide.;
#X text 192 536 So we've been told and some choose to believe it \,
;
#X text 943 550 choose to be _ lieve it \,;
#X text 946 601 I know they're _ wrong \, wait and;
#X text 949 653 se-e-e _ e-e.;
#X text 612 534 I know they're wrong \, wait and see.;
#X text 946 711 Some-day we'll _ find it \, the;
#X text 924 737 D-F# A _ F#-G x;
#X text 946 763 rain-bow con _ nec-tion \,;
#X text 239 582 Someday we'll find it \, the rainbow connection \,
;
#X text 613 586 the lovers \, the dreamers \, and me.;
#X obj 649 1346 output~;
#X floatatom 670 1132 5 0 0 0 - - - 0;
#X floatatom 728 1131 5 0 0 0 - - - 0;
#X obj 729 1164 osc~;
#X obj 505 1246 *~ 0.05 `;
#X obj 634 1280 complex-mod~;
#X obj 647 1166 phasor~;
#X obj 728 1107 * 2;
#X msg 254 77 300;
#X obj 670 1108 * 1;
#X connect 0 0 4 1;
#X connect 1 0 4 0;
#X connect 2 0 124 0;
#X connect 2 0 1 0;
#X connect 3 0 5 0;
#X connect 4 0 3 0;
#X connect 5 0 6 0;
#X connect 5 0 7 0;
#X connect 6 0 5 1;
#X connect 7 0 97 0;
#X connect 8 0 9 0;
#X connect 9 0 49 0;
#X connect 9 0 50 0;
#X connect 9 0 51 0;
#X connect 9 0 52 0;
#X connect 9 0 76 0;
#X connect 9 0 77 0;
#X connect 9 0 88 0;
#X connect 9 0 93 0;
#X connect 14 0 120 0;
#X connect 14 0 121 1;
#X connect 14 0 121 2;
#X connect 15 0 23 0;
#X connect 16 0 23 0;
#X connect 17 0 23 0;
#X connect 18 0 23 0;
#X connect 19 0 23 0;
#X connect 20 0 23 0;
#X connect 21 0 23 0;
#X connect 22 0 23 0;
#X connect 23 0 24 0;
#X connect 24 0 14 0;
#X connect 24 0 123 0;
#X connect 24 0 125 0;
#X connect 25 0 23 0;
#X connect 26 0 23 0;
#X connect 27 0 23 0;
#X connect 28 0 23 0;
#X connect 29 0 23 0;
#X connect 30 0 23 0;
#X connect 31 0 23 0;
#X connect 32 0 23 0;
#X connect 33 0 23 0;
#X connect 34 0 23 0;
#X connect 35 0 23 0;
#X connect 37 0 23 0;
#X connect 38 0 23 0;
#X connect 40 0 23 0;
#X connect 49 0 54 0;
#X connect 49 1 16 0;
#X connect 49 2 20 0;
#X connect 49 3 21 0;
#X connect 49 4 22 0;
#X connect 49 5 22 0;
#X connect 49 6 17 0;
#X connect 49 7 16 0;
#X connect 49 8 20 0;
#X connect 49 9 20 0;
#X connect 49 10 21 0;
#X connect 49 11 58 0;
#X connect 50 0 54 0;
#X connect 50 1 16 0;
#X connect 50 2 27 0;
#X connect 50 3 20 0;
#X connect 50 4 20 0;
#X connect 50 5 16 0;
#X connect 50 6 18 0;
#X connect 50 7 18 0;
#X connect 50 8 18 0;
#X connect 50 9 18 0;
#X connect 50 10 18 0;
#X connect 50 11 15 0;
#X connect 51 0 54 0;
#X connect 51 1 16 0;
#X connect 51 2 20 0;
#X connect 51 3 21 0;
#X connect 51 4 22 0;
#X connect 51 5 22 0;
#X connect 51 6 17 0;
#X connect 51 7 16 0;
#X connect 51 8 20 0;
#X connect 51 9 20 0;
#X connect 51 10 21 0;
#X connect 51 11 21 0;
#X connect 52 0 54 0;
#X connect 52 1 16 0;
#X connect 52 2 27 0;
#X connect 52 3 20 0;
#X connect 52 4 20 0;
#X connect 52 5 16 0;
#X connect 52 6 18 0;
#X connect 52 7 18 0;
#X connect 52 8 18 0;
#X connect 52 9 18 0;
#X connect 52 10 18 0;
#X connect 52 11 15 0;
#X connect 54 0 23 0;
#X connect 76 0 18 0;
#X connect 76 1 22 0;
#X connect 76 2 18 0;
#X connect 76 3 22 0;
#X connect 76 4 18 0;
#X connect 76 5 22 0;
#X connect 76 6 18 0;
#X connect 76 7 22 0;
#X connect 76 8 18 0;
#X connect 76 9 22 0;
#X connect 76 10 18 0;
#X connect 76 11 15 0;
#X connect 77 0 27 0;
#X connect 77 1 27 0;
#X connect 77 2 27 0;
#X connect 77 3 21 0;
#X connect 77 4 27 0;
#X connect 77 5 16 0;
#X connect 77 6 27 0;
#X connect 77 7 27 0;
#X connect 77 8 27 0;
#X connect 77 9 27 0;
#X connect 77 10 27 0;
#X connect 77 11 15 0;
#X connect 88 0 17 0;
#X connect 88 1 18 0;
#X connect 88 2 20 0;
#X connect 88 3 27 0;
#X connect 88 4 20 0;
#X connect 88 5 15 0;
#X connect 88 6 16 0;
#X connect 88 7 27 0;
#X connect 88 8 21 0;
#X connect 88 9 27 0;
#X connect 88 10 20 0;
#X connect 88 11 15 0;
#X connect 93 0 54 0;
#X connect 93 1 17 0;
#X connect 93 2 18 0;
#X connect 93 3 16 0;
#X connect 93 4 22 0;
#X connect 93 5 22 0;
#X connect 93 6 21 0;
#X connect 93 7 20 0;
#X connect 93 8 20 0;
#X connect 93 9 20 0;
#X connect 93 10 20 0;
#X connect 93 11 15 0;
#X connect 97 0 8 0;
#X connect 117 0 122 0;
#X connect 118 0 119 0;
#X connect 119 0 120 0;
#X connect 120 0 121 0;
#X connect 121 0 116 0;
#X connect 121 1 116 1;
#X connect 122 0 120 0;
#X connect 122 0 121 1;
#X connect 122 0 121 2;
#X connect 123 0 118 0;
#X connect 124 0 0 0;
#X connect 125 0 117 0;
