{
	"patcher" : 	{
		"fileversion" : 1,
		"appversion" : 		{
			"major" : 8,
			"minor" : 3,
			"revision" : 1,
			"architecture" : "x64",
			"modernui" : 1
		}
,
		"classnamespace" : "box",
		"rect" : [ 277.0, 195.0, 950.0, 574.0 ],
		"bglocked" : 0,
		"openinpresentation" : 0,
		"default_fontsize" : 12.0,
		"default_fontface" : 0,
		"default_fontname" : "Arial",
		"gridonopen" : 1,
		"gridsize" : [ 15.0, 15.0 ],
		"gridsnaponopen" : 1,
		"objectsnaponopen" : 1,
		"statusbarvisible" : 2,
		"toolbarvisible" : 1,
		"lefttoolbarpinned" : 0,
		"toptoolbarpinned" : 0,
		"righttoolbarpinned" : 0,
		"bottomtoolbarpinned" : 0,
		"toolbars_unpinned_last_save" : 0,
		"tallnewobj" : 0,
		"boxanimatetime" : 200,
		"enablehscroll" : 1,
		"enablevscroll" : 1,
		"devicewidth" : 0.0,
		"description" : "",
		"digest" : "",
		"tags" : "",
		"style" : "",
		"subpatcher_template" : "",
		"assistshowspatchername" : 0,
		"boxes" : [ 			{
				"box" : 				{
					"id" : "obj-37",
					"maxclass" : "comment",
					"numinlets" : 1,
					"numoutlets" : 0,
					"patching_rect" : [ 679.0, 132.0, 150.0, 20.0 ],
					"text" : "doesn't work right now :/"
				}

			}
, 			{
				"box" : 				{
					"id" : "obj-35",
					"maxclass" : "newobj",
					"numinlets" : 1,
					"numoutlets" : 2,
					"outlettype" : [ "", "" ],
					"patching_rect" : [ 657.0, 157.0, 198.0, 22.0 ],
					"text" : "jit.gl.handle atlanta @auto_rotate_1"
				}

			}
, 			{
				"box" : 				{
					"id" : "obj-34",
					"maxclass" : "message",
					"numinlets" : 2,
					"numoutlets" : 1,
					"outlettype" : [ "" ],
					"patching_rect" : [ 345.0, 418.0, 118.0, 22.0 ],
					"text" : "texture wavy moving"
				}

			}
, 			{
				"box" : 				{
					"id" : "obj-32",
					"maxclass" : "message",
					"numinlets" : 2,
					"numoutlets" : 1,
					"outlettype" : [ "" ],
					"patching_rect" : [ 251.5, 418.0, 87.0, 22.0 ],
					"text" : "texture moving"
				}

			}
, 			{
				"box" : 				{
					"id" : "obj-30",
					"maxclass" : "message",
					"numinlets" : 2,
					"numoutlets" : 1,
					"outlettype" : [ "" ],
					"patching_rect" : [ 169.0, 418.0, 76.0, 22.0 ],
					"text" : "texture wavy"
				}

			}
, 			{
				"box" : 				{
					"id" : "obj-28",
					"maxclass" : "newobj",
					"numinlets" : 1,
					"numoutlets" : 2,
					"outlettype" : [ "jit_gl_texture", "" ],
					"patching_rect" : [ 537.0, 452.0, 157.0, 22.0 ],
					"text" : "jit.gl.texture @name moving"
				}

			}
, 			{
				"box" : 				{
					"annotation" : "## The VIZZIE video player/looper ##",
					"bgmode" : 1,
					"border" : 0,
					"clickthrough" : 0,
					"enablehscroll" : 0,
					"enablevscroll" : 0,
					"id" : "obj-6",
					"lockeddragscroll" : 0,
					"lockedsize" : 0,
					"maxclass" : "bpatcher",
					"name" : "vz.playr.maxpat",
					"numinlets" : 7,
					"numoutlets" : 2,
					"offset" : [ 0.0, 0.0 ],
					"outlettype" : [ "jit_gl_texture", "" ],
					"patching_rect" : [ 522.0, 272.0, 348.0, 158.0 ],
					"prototypename" : "pixl",
					"varname" : "playr",
					"viewvisibility" : 1
				}

			}
, 			{
				"box" : 				{
					"attr" : "lighting_enable",
					"id" : "obj-27",
					"maxclass" : "attrui",
					"numinlets" : 1,
					"numoutlets" : 1,
					"outlettype" : [ "" ],
					"parameter_enable" : 0,
					"patching_rect" : [ 37.0, 388.0, 150.0, 22.0 ]
				}

			}
, 			{
				"box" : 				{
					"attr" : "shape",
					"id" : "obj-26",
					"maxclass" : "attrui",
					"numinlets" : 1,
					"numoutlets" : 1,
					"outlettype" : [ "" ],
					"parameter_enable" : 0,
					"patching_rect" : [ 37.0, 359.0, 150.0, 22.0 ]
				}

			}
, 			{
				"box" : 				{
					"id" : "obj-25",
					"maxclass" : "newobj",
					"numinlets" : 1,
					"numoutlets" : 2,
					"outlettype" : [ "jit_matrix", "" ],
					"patching_rect" : [ 102.0, 452.0, 403.0, 22.0 ],
					"text" : "jit.gl.gridshape atlanta @shape plane @smooth_shading 1 @texture wavy"
				}

			}
, 			{
				"box" : 				{
					"id" : "obj-24",
					"maxclass" : "newobj",
					"numinlets" : 1,
					"numoutlets" : 2,
					"outlettype" : [ "jit_gl_texture", "" ],
					"patching_rect" : [ 76.0, 317.0, 146.0, 22.0 ],
					"text" : "jit.gl.texture @name wavy"
				}

			}
, 			{
				"box" : 				{
					"id" : "obj-23",
					"maxclass" : "jit.pwindow",
					"numinlets" : 1,
					"numoutlets" : 2,
					"outlettype" : [ "jit_matrix", "" ],
					"patching_rect" : [ 404.0, 340.0, 80.0, 60.0 ],
					"sync" : 1
				}

			}
, 			{
				"box" : 				{
					"id" : "obj-21",
					"maxclass" : "message",
					"numinlets" : 2,
					"numoutlets" : 1,
					"outlettype" : [ "" ],
					"patching_rect" : [ 245.0, 277.0, 195.0, 22.0 ],
					"text" : "importmovie seashrooms.jpg, bang"
				}

			}
, 			{
				"box" : 				{
					"id" : "obj-19",
					"maxclass" : "newobj",
					"numinlets" : 1,
					"numoutlets" : 2,
					"outlettype" : [ "jit_matrix", "" ],
					"patching_rect" : [ 245.0, 322.0, 53.0, 22.0 ],
					"text" : "jit.matrix"
				}

			}
, 			{
				"box" : 				{
					"id" : "obj-18",
					"linecount" : 2,
					"maxclass" : "comment",
					"numinlets" : 1,
					"numoutlets" : 0,
					"patching_rect" : [ 154.0, 100.0, 265.0, 33.0 ],
					"text" : "attrui - connect to jit.world object to activate drop down menu, there you can select position"
				}

			}
, 			{
				"box" : 				{
					"attr" : "position",
					"id" : "obj-16",
					"maxclass" : "attrui",
					"numinlets" : 1,
					"numoutlets" : 1,
					"outlettype" : [ "" ],
					"parameter_enable" : 0,
					"patching_rect" : [ 139.0, 142.0, 213.0, 22.0 ]
				}

			}
, 			{
				"box" : 				{
					"bubble" : 1,
					"bubblepoint" : 0.0,
					"bubbleside" : 2,
					"id" : "obj-7",
					"linecount" : 2,
					"maxclass" : "comment",
					"numinlets" : 1,
					"numoutlets" : 0,
					"patching_rect" : [ 256.0, 177.0, 78.0, 52.0 ],
					"text" : "so window stays on top"
				}

			}
, 			{
				"box" : 				{
					"bubble" : 1,
					"bubblepoint" : 0.0,
					"bubbleside" : 2,
					"id" : "obj-5",
					"linecount" : 2,
					"maxclass" : "comment",
					"numinlets" : 1,
					"numoutlets" : 0,
					"patching_rect" : [ 179.0, 177.0, 75.0, 52.0 ],
					"text" : "unique world name"
				}

			}
, 			{
				"box" : 				{
					"id" : "obj-3",
					"maxclass" : "toggle",
					"numinlets" : 1,
					"numoutlets" : 1,
					"outlettype" : [ "int" ],
					"parameter_enable" : 0,
					"patching_rect" : [ 119.0, 89.0, 24.0, 24.0 ]
				}

			}
, 			{
				"box" : 				{
					"id" : "obj-1",
					"maxclass" : "newobj",
					"numinlets" : 1,
					"numoutlets" : 3,
					"outlettype" : [ "jit_matrix", "bang", "" ],
					"patching_rect" : [ 127.0, 231.0, 389.0, 22.0 ],
					"text" : "jit.world atlanta @floating 1 @auto_handle 1 @size 320 320 @enable 1"
				}

			}
 ],
		"lines" : [ 			{
				"patchline" : 				{
					"destination" : [ "obj-1", 0 ],
					"source" : [ "obj-16", 0 ]
				}

			}
, 			{
				"patchline" : 				{
					"destination" : [ "obj-23", 0 ],
					"order" : 0,
					"source" : [ "obj-19", 0 ]
				}

			}
, 			{
				"patchline" : 				{
					"destination" : [ "obj-24", 0 ],
					"order" : 1,
					"source" : [ "obj-19", 0 ]
				}

			}
, 			{
				"patchline" : 				{
					"destination" : [ "obj-19", 0 ],
					"source" : [ "obj-21", 0 ]
				}

			}
, 			{
				"patchline" : 				{
					"destination" : [ "obj-25", 0 ],
					"source" : [ "obj-26", 0 ]
				}

			}
, 			{
				"patchline" : 				{
					"destination" : [ "obj-25", 0 ],
					"source" : [ "obj-27", 0 ]
				}

			}
, 			{
				"patchline" : 				{
					"destination" : [ "obj-1", 0 ],
					"source" : [ "obj-3", 0 ]
				}

			}
, 			{
				"patchline" : 				{
					"destination" : [ "obj-25", 0 ],
					"source" : [ "obj-30", 0 ]
				}

			}
, 			{
				"patchline" : 				{
					"destination" : [ "obj-25", 0 ],
					"source" : [ "obj-32", 0 ]
				}

			}
, 			{
				"patchline" : 				{
					"destination" : [ "obj-25", 0 ],
					"source" : [ "obj-34", 0 ]
				}

			}
, 			{
				"patchline" : 				{
					"destination" : [ "obj-25", 0 ],
					"source" : [ "obj-35", 0 ]
				}

			}
, 			{
				"patchline" : 				{
					"destination" : [ "obj-28", 0 ],
					"source" : [ "obj-6", 0 ]
				}

			}
 ],
		"parameters" : 		{
			"obj-6::obj-10" : [ "pictctrl[1]", "pictctrl[1]", 0 ],
			"obj-6::obj-112::obj-119" : [ "Speed high", "Speed high", 0 ],
			"obj-6::obj-112::obj-120" : [ "Rate range", "Rate range", 0 ],
			"obj-6::obj-112::obj-121" : [ "Speed low", "Speed low", 0 ],
			"obj-6::obj-112::obj-16" : [ "Playback range", "Playback range", 0 ],
			"obj-6::obj-112::obj-40" : [ "Playback controls", "Playback controls", 0 ],
			"obj-6::obj-112::obj-79" : [ "Playback position", "Playback position", 0 ],
			"obj-6::obj-112::obj-89" : [ "Reset range", "Reset range", 0 ],
			"obj-6::obj-112::obj-92" : [ "Reset speed", "Reset speed", 0 ],
			"obj-6::obj-20" : [ "pictctrl[2]", "pictctrl[1]", 0 ],
			"obj-6::obj-28" : [ "pictctrl[279]", "pictctrl[1]", 0 ],
			"obj-6::obj-40" : [ "pictctrl[283]", "pictctrl[1]", 0 ],
			"obj-6::obj-51" : [ "moviepath", "moviepath", 0 ],
			"obj-6::obj-60" : [ "pictctrl[282]", "pictctrl[1]", 0 ],
			"obj-6::obj-64" : [ "pictctrl[284]", "pictctrl[1]", 0 ],
			"obj-6::obj-81" : [ "pictctrl[281]", "pictctrl[1]", 0 ],
			"obj-6::obj-83" : [ "pictctrl[280]", "pictctrl[1]", 0 ],
			"obj-6::obj-89" : [ "moviename", "moviename", 0 ],
			"parameterbanks" : 			{
				"0" : 				{
					"index" : 0,
					"name" : "",
					"parameters" : [ "-", "-", "-", "-", "-", "-", "-", "-" ]
				}

			}
,
			"inherited_shortname" : 1
		}
,
		"dependency_cache" : [ 			{
				"name" : "data-handler.maxpat",
				"bootpath" : "C74:/packages/Vizzie/patchers/utils",
				"type" : "JSON",
				"implicit" : 1
			}
, 			{
				"name" : "lo_hi_UI_control.maxpat",
				"bootpath" : "C74:/packages/Vizzie/patchers/utils",
				"type" : "JSON",
				"implicit" : 1
			}
, 			{
				"name" : "playr_controls.maxpat",
				"bootpath" : "C74:/packages/Vizzie/patchers/utils",
				"type" : "JSON",
				"implicit" : 1
			}
, 			{
				"name" : "vizzie-datatexconvert.js",
				"bootpath" : "C74:/packages/Vizzie/code",
				"type" : "TEXT",
				"implicit" : 1
			}
, 			{
				"name" : "vizzie-global.js",
				"bootpath" : "C74:/packages/Vizzie/code",
				"type" : "TEXT",
				"implicit" : 1
			}
, 			{
				"name" : "vz.playr.maxpat",
				"bootpath" : "C74:/packages/Vizzie/patchers",
				"type" : "JSON",
				"implicit" : 1
			}
, 			{
				"name" : "vzgl-blackframe.maxpat",
				"bootpath" : "C74:/packages/Vizzie/patchers/utils",
				"type" : "JSON",
				"implicit" : 1
			}
, 			{
				"name" : "vzgl-object.maxpat",
				"bootpath" : "C74:/packages/Vizzie/patchers/utils",
				"type" : "JSON",
				"implicit" : 1
			}
, 			{
				"name" : "vzgl-pwindow.maxpat",
				"bootpath" : "C74:/packages/Vizzie/patchers/utils",
				"type" : "JSON",
				"implicit" : 1
			}
 ],
		"autosave" : 0
	}

}
